# AST/ASF file generated using VICON BodyLanguage
# -----------------------------------------------
:version 1.10
:name VICON
:units
  mass 1.0
  length 0.45
  angle deg
:documentation
   .ast/.asf automatically generated from VICON data using
   VICON BodyBuilder and BodyLanguage model FoxedUp or BRILLIANT.MOD
:root
   order TX TY TZ RX RY RZ
   axis XYZ
   position 0 0 0  
   orientation 0 0 0 
:bonedata
  begin
     id 1 
     name lhipjoint
     direction 0.722297 -0.617336 0.311742 
     length 2.6635 
     axis 0 0 0  XYZ
  end
  begin
     id 2 
     name lfemur
     direction 0.34202 -0.939693 0  
     length 7.39349  
     axis 0 0 20  XYZ
    dof rx ry rz
    limits (-160.0 20.0)
           (-70.0 70.0)
           (-60.0 70.0)
  end
  begin
     id 3 
     name ltibia
     direction 0.34202 -0.939693 0   
     length 7.36294   
     axis 0 0 20   XYZ
    dof rx
    limits (-10.0 170.0)
  end
  begin
     id 4 
     name lfoot
     direction 0.104879 -0.288152 0.951824   
     length 2.16981   
     axis -90 7.62852e-016 20   XYZ
    dof rx rz
    limits (-45.0 90.0)
           (-70.0 20.0)
  end
  begin
     id 5 
     name ltoes
     direction 1.53586e-011 -4.21895e-011 1   
     length 1.08218   
     axis -90 7.62852e-016 20   XYZ
    dof rx
    limits (-90.0 20.0)
  end
  begin
     id 6 
     name rhipjoint
     direction -0.75102 -0.589393 0.297631   
     length 2.78977  
     axis 0 0 0  XYZ 
  end
  begin
     id 7 
     name rfemur
     direction -0.34202 -0.939693 0   
     length 7.46076   
     axis 0 0 -20   XYZ
    dof rx ry rz
    limits (-160.0 20.0)
           (-70.0 70.0)
           (-70.0 60.0)
  end
  begin
     id 8 
     name rtibia
     direction -0.34202 -0.939693 0   
     length 7.31726   
     axis 0 0 -20   XYZ
    dof rx
    limits (-10.0 170.0)
 end
 begin
     id 9 
     name rfoot
     direction -0.107991 -0.296704 0.948844   
     length 2.09388  
     axis -90 -7.62852e-016 -20   XYZ
    dof rx rz
    limits (-45.0 90.0)
           (-20.0 70.0)
  end
  begin
     id 10 
     name rtoes
     direction -1.53559e-011 -4.21911e-011 1   
     length 1.04433   
     axis -90 -7.62852e-016 -20   XYZ
    dof rx
    limits (-90.0 20.0)
  end
  begin
     id 11 
     name lowerback
     direction 0.0165164 0.98272 0.184358   
     length 1.71896   
     axis 0 0 0   XYZ
    dof rx ry rz
    limits (-20.0 45.0)
           (-30.0 30.0)
           (-30.0 30.0)
  end
  begin
     id 12 
     name upperback
     direction -0.00887249 0.992297 0.123566   
     length 1.71504   
     axis 0 0 0   XYZ
    dof rx ry rz
    limits (-20.0 45.0)
           (-30.0 30.0)
           (-30.0 30.0)
  end
  begin
     id 13 
     name thorax
     direction -0.0157026 0.998908 0.0440032   
     length 1.77022   
     axis 0 0 0   XYZ
    dof rx ry rz
    limits (-20.0 45.0)
           (-30.0 30.0)
           (-30.0 30.0)
  end
  begin
     id 14 
     name lowerneck
     direction -0.0238856 0.998137 0.0561411   
     length 1.89341   
     axis 0 0 0   XYZ
    dof rx ry rz
    limits (-20.0 45.0)
           (-30.0 30.0)
           (-30.0 30.0)
  end
  begin
     id 15 
     name upperneck
     direction 0.0276574 0.952253 -0.304056   
     length 1.86999   
     axis 0 0 0   XYZ
    dof rx ry rz
    limits (-20.0 45.0)
           (-30.0 30.0)
           (-30.0 30.0)
  end
  begin
     id 16
     name head
     direction 0.00800083 0.994258 -0.106712  
     length 1.91492  
     axis 0 0 0   XYZ
    dof rx ry rz
    limits (-20.0 45.0)
           (-30.0 30.0)
           (-30.0 30.0)
  end
  begin
     id 17 
     name lclavicle
     direction 0.97203 0.225407 0.06595  
     length 3.34889  
     axis 0 0 0   XYZ
    dof ry rz
    limits (-20.0 10.0)
           (0.0 20.0)
  end
  begin
     id 18 
     name lhumerus
     direction 1 -4.48973e-011 2.20267e-027   
     length 4.85645   
     axis 180 -30 -90   XYZ
    dof rx ry rz
    limits (-60.0 90.0)
           (-90.0 90.0)
           (-90.0 90.0)
  end
  begin
     id 19
     name lradius
     direction 1 -4.4897e-011 4.60472e-027   
     length 2.79874   
     axis 180 -30 -90   XYZ
    dof rx
    limits (-10.0 170.0)
  end
  begin
     id 20
     name lwrist
     direction 1 -4.48952e-011 1.14928e-026   
     length 1.39937   
     axis -6.29373e-015 90 90   XYZ
    dof ry
    limits (-180.0 0.0)
 end
  begin
     id 21 
     name lhand
     direction 1 -4.48967e-011 2.29886e-026   
     length 0.573398   
     axis -1.46689e-014 90 90   XYZ
    dof rx rz
    limits (-90.0 90.0)
           (-45.0 45.0)
  end
  begin
     id 22 
     name lfingers
     direction 1 -4.48955e-011 4.59726e-026   
     length 0.462289   
     axis -2.93383e-014 90 90   XYZ
    dof rx
    limits (0.0 90.0)
  end
  begin
     id 23
     name lthumb
     direction 0.707107 -6.34866e-011 0.707107   
     length 0.663757   
     axis -90 45 5.69224e-014   XYZ
    dof rx rz
    limits (-45.0 45.0)
           (-45.0 45.0)
  end
  begin
     id 24 
     name rclavicle
     direction -0.981571 0.157346 0.108443   
     length 3.35257  
     axis 0 0 0   XYZ 
    dof ry rz
    limits (-10.0 20.0)
           (-20.0 0.0)
  end
  begin
     id 25 
     name rhumerus
     direction -1 -4.48967e-011 8.58308e-029  
     length 4.67018   
     axis 180 30 90   XYZ
    dof rx ry rz
    limits (-90.0 60.0)
           (-90.0 90.0)
           (-90.0 90.0)
  end
  begin
     id 26 
     name rradius
     direction -1 -4.48958e-011 4.52548e-027   
     length 2.65534   
     axis 180 30 90   XYZ
    dof rx
    limits (-10.0 170.0)
  end
  begin
     id 27 
     name rwrist
     direction -1 -4.48977e-011 1.14952e-026   
     length 1.32767   
     axis -6.29373e-015 -90 -90   XYZ
    dof ry
    limits (-180.0 0.0)
  end
  begin
     id 28
     name rhand
     direction -1 -4.48924e-011 2.29804e-026   
     length 0.594069   
     axis -1.46689e-014 -90 -90   XYZ
    dof rx rz
    limits (-90.0 90.0)
           (-45.0 45.0)
  end
  begin
     id 29
     name rfingers
     direction -1 -4.48998e-011 4.59888e-026   
     length 0.478954   
     axis -2.93383e-014 -90 -90   XYZ
    dof rx
    limits (0.0 90.0)
  end
  begin
     id 30
     name rthumb
     direction -0.707107 -6.34933e-011 0.707107   
     length 0.687685   
     axis -90 -45 -5.69224e-014   XYZ
    dof rx rz
    limits (-45.0 45.0)
           (-45.0 45.0)
  end
:hierarchy
  begin
    root lhipjoint rhipjoint lowerback
    lhipjoint lfemur
    lfemur ltibia
    ltibia lfoot
    lfoot ltoes
    rhipjoint rfemur
    rfemur rtibia
    rtibia rfoot
    rfoot rtoes
    lowerback upperback
    upperback thorax
    thorax lowerneck lclavicle rclavicle
    lowerneck upperneck
    upperneck head
    lclavicle lhumerus
    lhumerus lradius
    lradius lwrist
    lwrist lhand lthumb
    lhand lfingers
    rclavicle rhumerus
    rhumerus rradius
    rradius rwrist
    rwrist rhand rthumb
    rhand rfingers
  end

#!OML:ASF E:\pregnant2\Project 1\Capture day 1\Session 1\pregnant2.ASF
:FULLY-SPECIFIED
:DEGREES
1448
root 9.19323 11.1888 18.5197 40.4121 -5.82597 7.00919
lowerback -36.5576 -1.21271 -7.44227
upperback -13.1998 1.14121 -1.91137
thorax 3.36185 0.733375 2.23341
lowerneck -17.5439 -1.14459 -2.48073
upperneck 41.7622 -1.10194 0.586943
head 18.8543 -0.758424 0.501592
rclavicle 5.62809e-015 -1.88845e-015
rhumerus -67.7771 44.7376 -84.8419
rradius 100.654
rwrist 11.9185
rhand -21.1138 -23.6981
rfingers 7.12502
rthumb 5.26448 -53.6127
lclavicle 5.62809e-015 -1.88845e-015
lhumerus -71.0504 -42.2317 88.2482
lradius 98.0994
lwrist 2.80361
lhand -24.2639 39.1329
lfingers 7.12502
lthumb 2.22245 69.1011
rfemur -126.739 -3.81642 16.9043
rtibia 90.2363
rfoot 3.86667 0.731573
rtoes -0.529422
lfemur -120.202 -3.68693 -33.1647
ltibia 82.9883
lfoot -2.50068 -1.88126
ltoes -11.764
1449
root 9.19665 11.1784 18.5124 40.231 -5.79793 6.93111
lowerback -36.7337 -1.1808 -7.36373
upperback -13.2219 1.16663 -1.88533
thorax 3.39778 0.742962 2.22837
lowerneck -17.4256 -1.1408 -2.45782
upperneck 41.8455 -1.1112 0.590229
head 18.8731 -0.758679 0.497831
rclavicle 3.08613e-014 -2.19657e-014
rhumerus -66.4228 44.4391 -83.8316
rradius 100.593
rwrist 11.9728
rhand -19.4102 -23.0409
rfingers 7.12502
rthumb 6.90923 -52.9081
lclavicle 3.08613e-014 -2.19657e-014
lhumerus -70.0527 -41.7437 87.4831
lradius 98.1162
lwrist 1.8212
lhand -23.0941 38.6622
lfingers 7.12502
lthumb 3.35219 68.6156
rfemur -126.553 -3.76605 16.9815
rtibia 90.2501
rfoot 3.6529 0.71163
rtoes -0.454808
lfemur -120.14 -3.62563 -33.1053
ltibia 83.1022
lfoot -2.49185 -1.87788
ltoes -11.7461
1450
root 9.20017 11.1686 18.5052 40.0409 -5.7609 6.84979
lowerback -36.9025 -1.14457 -7.27448
upperback -13.2416 1.19296 -1.85981
thorax 3.43406 0.752591 2.21777
lowerneck -17.3029 -1.13894 -2.43863
upperneck 41.9392 -1.12183 0.592863
head 18.8973 -0.760214 0.494201
rclavicle -2.17918e-014 -1.15295e-014
rhumerus -65.0909 44.1591 -82.8917
rradius 100.481
rwrist 11.9764
rhand -17.7677 -22.3987
rfingers 7.12502
rthumb 8.49451 -52.2078
lclavicle -2.17918e-014 -1.15295e-014
lhumerus -69.0389 -41.2814 86.7643
lradius 98.0946
lwrist 0.919982
lhand -22.0124 38.1893
lfingers 7.12502
lthumb 4.39683 68.1237
rfemur -126.351 -3.72409 17.0633
rtibia 90.264
rfoot 3.43333 0.706743
rtoes -0.408231
lfemur -120.066 -3.56648 -33.0416
ltibia 83.2128
lfoot -2.48335 -1.87743
ltoes -11.732
1451
root 9.20375 11.1594 18.4984 39.847 -5.71874 6.76927
lowerback -37.0754 -1.10696 -7.1796
upperback -13.2536 1.21963 -1.8358
thorax 3.48019 0.761667 2.20301
lowerneck -17.1804 -1.14097 -2.42458
upperneck 42.0319 -1.13747 0.597372
head 18.9211 -0.764287 0.491373
rclavicle -7.24322e-015 5.96354e-015
rhumerus -63.7583 43.8982 -82.0025
rradius 100.321
rwrist 11.9626
rhand -16.1334 -21.8049
rfingers 7.12502
rthumb 10.0715 -51.5439
lclavicle -7.24322e-015 5.96354e-015
lhumerus -68 -40.8484 86.0876
lradius 98.0372
lwrist 0.124474
lhand -20.9917 37.7659
lfingers 7.12502
lthumb 5.38233 67.6775
rfemur -126.14 -3.69056 17.1451
rtibia 90.2773
rfoot 3.20637 0.713678
rtoes -0.367116
lfemur -119.979 -3.51128 -32.9808
ltibia 83.3191
lfoot -2.48207 -1.8779
ltoes -11.8031
1452
root 9.20718 11.1508 18.4917 39.6502 -5.67212 6.69385
lowerback -37.2541 -1.07288 -7.08877
upperback -13.2559 1.24403 -1.81225
thorax 3.53864 0.769182 2.18927
lowerneck -17.0624 -1.14574 -2.4136
upperneck 42.1203 -1.15645 0.602674
head 18.9438 -0.770035 0.488772
rclavicle 9.97651e-015 -7.95139e-015
rhumerus -62.4088 43.6641 -81.1537
rradius 100.101
rwrist 11.9918
rhand -14.5006 -21.267
rfingers 7.12502
rthumb 11.6463 -50.9233
lclavicle 9.97651e-015 -7.95139e-015
lhumerus -66.9246 -40.4452 85.4486
lradius 97.9374
lwrist -0.578984
lhand -20.0537 37.3895
lfingers 7.12502
lthumb 6.28793 67.2762
rfemur -125.92 -3.66649 17.223
rtibia 90.2887
rfoot 2.97573 0.727163
rtoes -0.318547
lfemur -119.882 -3.46095 -32.9294
ltibia 83.4181
lfoot -2.48184 -1.88253
ltoes -11.9068
